<?xml version="1.0" encoding="UTF-8" standalone="no"?>
<!-- Generator: Adobe Illustrator 14.0.0, SVG Export Plug-In . SVG Version: 6.00 Build 43363)  -->

<svg
   xmlns:dc="http://purl.org/dc/elements/1.1/"
   xmlns:cc="http://creativecommons.org/ns#"
   xmlns:rdf="http://www.w3.org/1999/02/22-rdf-syntax-ns#"
   xmlns:svg="http://www.w3.org/2000/svg"
   xmlns="http://www.w3.org/2000/svg"
   xmlns:xlink="http://www.w3.org/1999/xlink"
   xmlns:sodipodi="http://sodipodi.sourceforge.net/DTD/sodipodi-0.dtd"
   xmlns:inkscape="http://www.inkscape.org/namespaces/inkscape"
   version="1.1"
   id="Layer_1"
   x="0px"
   y="0px"
   width="60"
   height="40"
   viewBox="0 0 474.00002 281"
   enable-background="new 0 0 595.22 842"
   xml:space="preserve">
<rect
   style="fill:#3ebfea"
   x="149.63931"
   y="103.3047"
   width="179.82001"
   height="31.460144"
   id="rect253" /><path
   style="fill:#3ebfea;fill-rule:evenodd"
   clip-rule="evenodd"
   d="m 148.36371,45.490729 c -13.17883,0 -24.22907,10.627597 -24.22907,23.806432 0,13.178835 11.05024,24.232919 24.22907,24.232919 13.17884,0 23.80643,-11.054084 23.80643,-24.232919 0,-13.178835 -10.62759,-23.806432 -23.80643,-23.806432"
   id="path255" /><path
   style="fill:#3ebfea;fill-rule:evenodd"
   clip-rule="evenodd"
   d="m 207.87979,44.641597 c -13.17499,0 -23.80643,10.627597 -23.80643,24.229077 0,13.178835 10.63144,23.806432 23.80643,23.806432 13.60532,0 24.23292,-10.627597 24.23292,-23.806432 0,-13.60148 -10.6276,-24.229077 -24.23292,-24.229077"
   id="path257" /><path
   style="fill:#3ebfea;fill-rule:evenodd"
   clip-rule="evenodd"
   d="m 266.5429,44.641597 c -13.175,0 -23.80259,10.627597 -23.80259,24.229077 0,13.178835 10.62759,23.806432 23.80259,23.806432 13.17883,0 24.23292,-10.627597 24.23292,-23.806432 0,-13.60148 -11.05409,-24.229077 -24.23292,-24.229077"
   id="path259" /><path
   style="fill:#3ebfea;fill-rule:evenodd"
   clip-rule="evenodd"
   d="m 327.76108,44.641597 c -13.60148,0 -24.23292,10.627597 -24.23292,24.229077 0,13.178835 10.63144,23.806432 24.23292,23.806432 13.17499,0 23.80643,-10.627597 23.80643,-23.806432 0,-13.60148 -10.63144,-24.229077 -23.80643,-24.229077"
   id="path261" /><rect
   style="fill:#3ebfea"
   id="rect271"
   height="11.949"
   width="3.4300001"
   clip-path="url(#SVGID_16_)"
   y="147.21201"
   x="218.66499"
   transform="matrix(3.8422259,0,0,3.8422259,-608.90059,-565.6153)" /><polyline
   style="fill:#3ebfea;fill-rule:evenodd"
   id="polyline273"
   points="170.093,189.587    158.476,189.587 158.476,220.346 170.093,220.346 170.093,207.954 182.154,220.346 196.316,220.346 180.162,202.754    193.328,189.587 181.158,189.587 170.093,200.984 170.093,189.587  "
   clip-rule="evenodd"
   clip-path="url(#SVGID_16_)"
   transform="matrix(3.8422259,0,0,3.8422259,-608.90059,-565.6153)" /><polyline
   style="fill:#3ebfea;fill-rule:evenodd"
   id="polyline275"
   points="197.201,189.587    208.265,189.587 208.265,212.601 227.959,212.601 227.959,220.346 197.201,220.346 197.201,189.587  "
   clip-rule="evenodd"
   clip-path="url(#SVGID_16_)"
   transform="matrix(3.8422259,0,0,3.8422259,-608.90059,-565.6153)" /><polyline
   style="fill:#3ebfea;fill-rule:evenodd"
   id="polyline277"
   points="257.279,207.068    263.143,189.587 281.842,189.587 281.842,220.346 270.778,220.346 270.778,197.222 262.811,220.346 251.416,220.346    243.781,197.222 243.781,220.346 232.385,220.346 232.385,189.587 251.416,189.587 257.279,207.068  "
   clip-rule="evenodd"
   clip-path="url(#SVGID_16_)"
   transform="matrix(3.8422259,0,0,3.8422259,-608.90059,-565.6153)" /><rect
   style="fill:#3ebfea"
   x="215.95618"
   y="16.581825"
   width="45.9146"
   height="13.178835"
   id="rect279" />
</svg>